<?xml version="1.0" standalone="no"?>
<!DOCTYPE svg PUBLIC "-//W3C//DTD SVG 20010904//EN"
 "http://www.w3.org/TR/2001/REC-SVG-20010904/DTD/svg10.dtd">
<svg version="1.0" xmlns="http://www.w3.org/2000/svg"
 width="396.000000pt" height="441.000000pt" viewBox="0 0 396.000000 441.000000"
 preserveAspectRatio="xMidYMid meet">

<g transform="translate(0.000000,441.000000) scale(0.100000,-0.100000)"
fill="#000000" stroke="none">
<path d="M1510 4309 c-25 -11 -60 -35 -79 -52 -41 -39 -81 -120 -81 -164 l0
-33 -70 0 c-62 0 -74 -3 -95 -25 -21 -20 -25 -34 -25 -84 l0 -60 -267 -3
c-265 -3 -269 -3 -323 -29 -70 -33 -126 -89 -159 -159 l-26 -55 -3 -1615 c-2
-1453 -1 -1620 14 -1669 30 -102 95 -174 194 -212 49 -18 91 -19 1390 -19
1299 0 1341 1 1390 19 99 38 164 110 194 212 15 49 16 216 14 1669 l-3 1615
-23 50 c-30 65 -102 138 -166 167 -49 22 -64 23 -318 26 l-268 3 0 60 c0 50
-4 64 -25 84 -21 22 -33 25 -103 25 l-78 0 -12 60 c-15 72 -59 133 -125 174
-38 23 -62 30 -120 34 -95 6 -159 -20 -222 -90 -41 -46 -54 -74 -70 -150 -5
-27 -7 -28 -79 -28 l-73 0 -6 45 c-12 85 -71 164 -152 201 -66 31 -161 32
-225 3z m177 -70 c87 -32 144 -151 113 -233 l-10 -26 174 0 174 0 -5 63 c-8
98 36 169 124 198 138 45 283 -85 246 -223 l-10 -38 113 0 114 0 0 -190 0
-190 -740 0 -740 0 0 190 0 190 99 0 100 0 -6 54 c-10 92 27 163 101 197 46
21 111 24 153 8z m-527 -453 l0 -44 -172 -4 c-130 -4 -185 -10 -220 -23 -66
-23 -141 -94 -175 -163 l-28 -57 0 -1490 0 -1490 36 -65 c23 -43 52 -78 84
-102 96 -73 18 -69 1305 -66 l1155 3 57 28 c62 30 115 83 150 149 l23 43 0
1500 0 1500 -23 47 c-32 64 -96 126 -162 157 -51 23 -69 26 -222 29 l-168 4 0
44 0 44 243 0 c134 0 258 -5 279 -10 63 -18 129 -70 162 -130 l31 -55 0 -1625
c0 -1479 -1 -1628 -16 -1661 -26 -56 -79 -110 -134 -135 l-50 -24 -1335 0
-1335 0 -50 24 c-55 25 -108 79 -134 135 -15 33 -16 182 -16 1661 l0 1625 31
55 c32 58 99 112 158 129 17 5 142 10 279 10 l247 1 0 -44z m0 -166 c0 -41 5
-56 25 -75 l24 -25 771 0 771 0 24 25 c20 19 25 34 25 75 l0 50 163 0 c135 0
169 -3 202 -19 60 -27 101 -66 129 -123 l26 -52 0 -1465 0 -1466 -24 -50 c-12
-27 -41 -67 -64 -87 -79 -71 -18 -68 -1262 -68 -1268 0 -1186 -5 -1271 80 -86
86 -80 -38 -77 1611 l3 1454 22 41 c28 53 79 102 128 125 34 16 66 19 213 19
l172 0 0 -50z"/>
<path d="M1115 3280 c-57 -14 -103 -38 -145 -76 -184 -167 -143 -460 79 -562
186 -86 402 9 466 205 21 64 10 93 -36 93 -30 0 -30 0 -60 -80 -43 -113 -175
-180 -291 -146 -260 75 -223 456 45 474 34 2 68 9 75 14 15 13 16 60 0 76 -13
13 -85 14 -133 2z"/>
<path d="M1340 3100 c-79 -101 -137 -167 -144 -163 -6 4 -44 31 -84 61 -40 30
-74 53 -75 51 -2 -2 -13 -17 -25 -33 -12 -16 -22 -33 -22 -37 0 -5 52 -48 116
-95 l115 -87 29 34 c82 100 290 371 290 378 0 5 -15 20 -34 35 l-34 25 -132
-169z"/>
<path d="M1790 3181 c-12 -24 -4 -48 21 -61 24 -14 475 -13 500 0 21 12 25 50
7 68 -9 9 -81 12 -265 12 -239 0 -253 -1 -263 -19z"/>
<path d="M2492 3188 c-18 -18 -14 -56 7 -68 12 -6 121 -10 284 -10 243 0 265
1 280 18 20 22 22 43 5 60 -17 17 -559 17 -576 0z"/>
<path d="M1796 2974 c-20 -19 -20 -24 0 -52 15 -21 21 -22 173 -22 145 0 159
2 176 20 15 17 16 24 7 45 l-12 25 -164 0 c-136 0 -167 -3 -180 -16z"/>
<path d="M2240 2971 c-14 -27 -13 -37 6 -55 13 -14 54 -16 298 -16 296 0 306
1 306 45 0 44 -9 45 -312 45 -274 0 -288 -1 -298 -19z"/>
<path d="M2942 2978 c-17 -17 -15 -44 4 -62 32 -33 134 -13 134 25 0 6 -5 19
-10 30 -9 15 -22 19 -63 19 -29 0 -58 -5 -65 -12z"/>
<path d="M1790 2761 c-21 -41 12 -71 80 -71 68 0 101 30 80 71 -9 16 -22 19
-80 19 -58 0 -71 -3 -80 -19z"/>
<path d="M2108 2754 c-11 -23 -10 -29 11 -45 13 -11 36 -19 51 -19 15 0 38 8
51 19 21 16 22 22 11 45 -10 23 -17 26 -62 26 -45 0 -52 -3 -62 -26z"/>
<path d="M2391 2761 c-24 -45 11 -71 96 -71 72 0 96 15 91 55 l-3 30 -87 3
c-78 2 -88 1 -97 -17z"/>
<path d="M2670 2765 c-17 -21 -4 -61 22 -69 13 -3 95 -6 183 -6 169 0 205 8
205 49 0 37 -18 41 -211 41 -153 0 -189 -3 -199 -15z"/>
<path d="M1114 2291 c-56 -14 -125 -55 -166 -99 -125 -136 -124 -329 2 -466
172 -186 490 -114 567 130 21 68 12 89 -38 89 -31 0 -35 -3 -49 -45 -41 -122
-120 -182 -242 -182 -162 0 -279 170 -224 325 32 89 119 154 217 161 30 2 57
5 61 5 4 1 12 10 18 22 9 16 8 26 -5 45 -13 20 -23 24 -63 23 -26 -1 -61 -4
-78 -8z"/>
<path d="M1340 2110 c-86 -109 -137 -167 -144 -162 -6 5 -41 32 -77 60 -37 29
-71 52 -75 52 -15 0 -58 -70 -48 -79 5 -4 58 -45 117 -91 92 -70 111 -81 122
-69 7 8 81 101 164 208 l151 193 -37 29 c-19 16 -37 29 -38 29 -1 0 -62 -76
-135 -170z"/>
<path d="M1797 2203 c-15 -14 -7 -62 12 -73 12 -6 111 -10 253 -10 258 0 272
3 266 55 l-3 30 -261 3 c-143 1 -263 -1 -267 -5z"/>
<path d="M2490 2195 c-17 -21 -4 -61 22 -69 30 -8 506 -8 536 0 26 8 39 48 22
69 -10 13 -57 15 -290 15 -233 0 -280 -2 -290 -15z"/>
<path d="M1797 1993 c-15 -14 -7 -63 12 -73 11 -5 83 -10 163 -10 114 0 148 3
166 16 24 17 29 43 10 62 -13 13 -339 18 -351 5z"/>
<path d="M2240 1981 c-12 -24 -4 -48 21 -61 19 -11 537 -14 563 -4 26 10 38
41 26 64 -10 19 -21 20 -305 20 -280 0 -295 -1 -305 -19z"/>
<path d="M2938 1974 c-11 -23 -10 -29 11 -45 45 -37 131 -17 131 30 0 29 -22
41 -77 41 -48 0 -55 -3 -65 -26z"/>
<path d="M1794 1776 c-3 -8 -4 -25 -2 -38 3 -22 7 -23 77 -23 59 0 76 3 85 18
8 12 8 22 0 35 -15 23 -151 31 -160 8z"/>
<path d="M2110 1771 c-8 -15 -8 -27 0 -42 10 -17 19 -20 62 -17 58 3 81 25 62
56 -8 12 -27 18 -62 20 -43 3 -52 0 -62 -17z"/>
<path d="M2394 1776 c-3 -8 -4 -25 -2 -38 3 -22 8 -23 90 -26 79 -2 88 -1 98
18 8 14 8 26 0 40 -9 18 -21 20 -96 20 -64 0 -86 -3 -90 -14z"/>
<path d="M2672 1778 c-7 -7 -12 -20 -12 -29 0 -38 24 -42 212 -40 184 2 208 6
208 40 0 37 -19 41 -210 41 -131 0 -190 -4 -198 -12z"/>
<path d="M1105 1299 c-57 -16 -139 -74 -176 -123 -129 -171 -67 -424 125 -512
80 -37 159 -41 247 -14 63 19 81 30 134 83 86 87 124 201 74 227 -29 16 -62
-8 -77 -57 -43 -142 -202 -213 -337 -149 -88 40 -138 119 -138 216 -1 135 99
236 241 245 32 2 58 8 63 16 12 20 11 53 -3 67 -14 14 -108 15 -153 1z"/>
<path d="M1347 1125 c-71 -91 -133 -165 -138 -165 -5 0 -44 26 -86 57 l-76 57
-28 -34 c-28 -33 -28 -35 -12 -51 40 -38 217 -167 224 -163 4 2 78 95 165 206
l157 201 -34 28 c-19 16 -36 28 -39 28 -3 0 -63 -74 -133 -164z"/>
<path d="M1812 1214 c-24 -17 -29 -43 -10 -62 9 -9 82 -12 265 -12 l253 0 12
26 c11 23 10 29 -11 45 -21 17 -43 19 -255 19 -193 0 -235 -3 -254 -16z"/>
<path d="M2512 1223 c-22 -9 -34 -41 -22 -63 10 -19 21 -20 295 -20 271 0 285
1 295 19 13 26 3 50 -27 62 -25 9 -518 12 -541 2z"/>
<path d="M1802 998 c-6 -6 -12 -20 -12 -29 0 -35 23 -40 196 -37 l169 3 0 35
0 35 -170 3 c-124 2 -174 -1 -183 -10z"/>
<path d="M2250 995 c-7 -8 -10 -25 -6 -40 l6 -25 297 2 c269 3 297 5 307 21 8
12 8 22 0 35 -10 15 -38 17 -301 20 -248 2 -292 0 -303 -13z"/>
<path d="M2944 996 c-3 -8 -4 -25 -2 -38 3 -21 9 -23 65 -26 54 -3 63 0 73 18
8 14 8 26 0 40 -9 17 -21 20 -71 20 -42 0 -61 -4 -65 -14z"/>
<path d="M1812 794 c-24 -17 -29 -43 -10 -62 16 -16 130 -16 146 0 18 18 14
56 -7 68 -29 15 -104 12 -129 -6z"/>
<path d="M2128 799 c-22 -12 -23 -52 -4 -68 8 -7 36 -11 63 -9 45 3 48 5 51
33 3 19 -2 33 -14 42 -21 15 -72 17 -96 2z"/>
<path d="M2406 794 c-19 -18 -21 -45 -4 -62 7 -7 42 -12 88 -12 78 0 100 9
100 41 0 35 -28 49 -100 49 -49 0 -73 -4 -84 -16z"/>
<path d="M2686 797 c-12 -9 -17 -23 -14 -42 l3 -30 195 -3 c174 -2 196 -1 207
15 17 23 16 30 -7 53 -18 18 -33 20 -193 20 -126 0 -178 -4 -191 -13z"/>
</g>
</svg>
